<?xml version="1.0" encoding="UTF-8"?>
<svg id="Layer_2" data-name="Layer 2" xmlns="http://www.w3.org/2000/svg" viewBox="0 0 162.98 233.12">
  <defs>
    <style>
      .cls-1 {
        fill: #04b4bd;
      }

      .cls-2 {
        fill: #57b961;
      }

      .cls-3 {
        fill: #5d687a;
      }

      .cls-4 {
        fill: #2480c4;
      }

      .cls-5 {
        fill: #2cb89c;
      }

      .cls-6 {
        fill: #1098d3;
      }

      .cls-7 {
        fill: #02b1dc;
      }

      .cls-8 {
        fill: #44b87e;
      }

      .cls-9 {
        fill: #46429b;
      }

      .cls-10 {
        fill: #3469b2;
      }

      .cls-11 {
        fill: #3d55a4;
      }

      .cls-12 {
        fill: #68bc47;
      }
    </style>
  </defs>
  <g id="Layer_1-2" data-name="Layer 1">
    <path class="cls-3" d="M52.23,203.44c-1.87,0-3.37,1.5-3.37,3.37v16.72c0,1.84,1.5,3.37,3.37,3.37s3.37-1.5,3.37-3.37v-16.72c0-1.84-1.5-3.37-3.37-3.37Z"/>
    <path class="cls-3" d="M38.71,215.72c-1.58,0-2.86,1.27-2.86,2.86v11.68c0,1.58,1.27,2.86,2.86,2.86s2.86-1.27,2.86-2.86v-11.68c0-1.58-1.27-2.86-2.86-2.86Z"/>
    <path class="cls-3" d="M66.42,177.29c-2.21,0-4.02,1.81-4.02,4.02v35.39c0,2.21,1.81,4.02,4.02,4.02s4.02-1.81,4.02-4.02v-35.39c0-2.21-1.81-4.02-4.02-4.02Z"/>
    <path class="cls-3" d="M38.69,164.33c-1.87,0-3.37,1.5-3.37,3.37v17c0,1.84,1.5,3.37,3.37,3.37s3.37-1.5,3.37-3.37v-17c0-1.84-1.5-3.37-3.37-3.37Z"/>
    <path class="cls-3" d="M52.23,170.59c-.26,0-.54.03-.76.09-.23.03-.45.11-.65.2-1.36.57-2.26,1.89-2.26,3.39v20.51c0,1.53.96,2.91,2.4,3.45.09.03.2.06.34.11.14.06.23.06.31.09.28.06.48.06.65.06,2.04,0,3.68-1.64,3.68-3.68v-20.51c0-2.04-1.64-3.71-3.68-3.71"/>
    <path class="cls-3" d="M25.8,158.31c-1.67,0-3.03,1.36-3.03,3.03v13.69c0,1.67,1.36,3.03,3.03,3.03s3.03-1.36,3.03-3.03v-13.69c0-1.67-1.36-3.03-3.03-3.03Z"/>
    <path class="cls-3" d="M13.53,152.65c-1.5,0-2.69,1.22-2.69,2.69v10.52c0,1.47,1.22,2.69,2.69,2.69s2.69-1.22,2.69-2.69v-10.52c0-1.5-1.22-2.69-2.69-2.69Z"/>
    <path class="cls-3" d="M2.21,147.31c-1.22,0-2.21.99-2.21,2.21v8.12c0,1.22.99,2.21,2.21,2.21s2.21-.99,2.21-2.21v-8.12c0-1.22-.99-2.21-2.21-2.21Z"/>
    <path class="cls-3" d="M81.5,184.27c-2.24,0-4.02,1.81-4.02,4.02v23.42c0,2.21,1.81,4.02,4.02,4.02s4.02-1.81,4.02-4.02v-23.42c0-2.21-1.81-4.02-4.02-4.02Z"/>
    <path class="cls-3" d="M110.76,203.44c1.84,0,3.37,1.5,3.37,3.37v16.72c0,1.84-1.5,3.37-3.37,3.37s-3.37-1.5-3.37-3.37v-16.72c0-1.84,1.5-3.37,3.37-3.37Z"/>
    <path class="cls-3" d="M124.28,215.72c1.58,0,2.86,1.27,2.86,2.86v11.68c0,1.58-1.27,2.86-2.86,2.86s-2.86-1.27-2.86-2.86v-11.68c0-1.58,1.27-2.86,2.86-2.86Z"/>
    <path class="cls-3" d="M96.54,177.29c2.21,0,4.02,1.81,4.02,4.02v35.39c0,2.21-1.81,4.02-4.02,4.02s-4.02-1.81-4.02-4.02v-35.39c0-2.21,1.81-4.02,4.02-4.02Z"/>
    <path class="cls-3" d="M124.26,164.33c1.84,0,3.37,1.5,3.37,3.37v17c0,1.84-1.5,3.37-3.37,3.37s-3.37-1.5-3.37-3.37v-17c0-1.84,1.5-3.37,3.37-3.37Z"/>
    <path class="cls-3" d="M110.75,170.59c.26,0,.51.03.76.09.23.03.45.11.65.2,1.36.57,2.26,1.89,2.26,3.39v20.51c0,1.53-.96,2.91-2.4,3.45-.09.03-.2.06-.34.11-.14.06-.23.06-.31.09-.28.06-.48.06-.65.06-2.04,0-3.68-1.64-3.68-3.68v-20.51c0-2.04,1.64-3.71,3.68-3.71"/>
    <path class="cls-3" d="M137.18,158.31c1.67,0,3.03,1.36,3.03,3.03v13.69c0,1.67-1.36,3.03-3.03,3.03s-3.03-1.36-3.03-3.03v-13.69c0-1.67,1.36-3.03,3.03-3.03Z"/>
    <path class="cls-3" d="M149.47,152.65c1.47,0,2.69,1.22,2.69,2.69v10.52c0,1.47-1.22,2.69-2.69,2.69s-2.69-1.22-2.69-2.69v-10.52c0-1.5,1.22-2.69,2.69-2.69Z"/>
    <path class="cls-3" d="M160.78,147.31c1.22,0,2.21.99,2.21,2.21v8.12c0,1.22-.99,2.21-2.21,2.21s-2.21-.99-2.21-2.21v-8.12c0-1.22.99-2.21,2.21-2.21Z"/>
    <path class="cls-8" d="M35.33,11.96v11.26c0,1.84,1.5,3.37,3.37,3.37s3.37-1.5,3.37-3.37v-11.26c0-1.84-1.5-3.37-3.37-3.37s-3.37,1.5-3.37,3.37Z"/>
    <path class="cls-8" d="M35.33,119.49v11.26c0,1.84,1.5,3.37,3.37,3.37s3.37-1.5,3.37-3.37v-11.26c0-1.84-1.5-3.37-3.37-3.37s-3.37,1.5-3.37,3.37Z"/>
    <path class="cls-10" d="M120.9,11.96v11.26c0,1.84,1.5,3.37,3.37,3.37s3.37-1.5,3.37-3.37v-11.26c0-1.84-1.5-3.37-3.37-3.37s-3.37,1.5-3.37,3.37Z"/>
    <path class="cls-10" d="M120.9,119.49v11.26c0,1.84,1.5,3.37,3.37,3.37s3.37-1.5,3.37-3.37v-11.26c0-1.84-1.5-3.37-3.37-3.37s-3.37,1.5-3.37,3.37Z"/>
    <path class="cls-8" d="M35.33,46.46v17.31c0,1.84,1.5,3.37,3.37,3.37s3.37-1.5,3.37-3.37v-17.31c0-1.84-1.5-3.37-3.37-3.37s-3.37,1.5-3.37,3.37Z"/>
    <path class="cls-5" d="M51.43,17.98c-.23.06-.45.11-.65.2-1.39.57-2.26,1.9-2.26,3.39v99.46c0,1.53.96,2.91,2.4,3.45.08.03.17.06.31.11.14.03.23.06.31.08.28.06.48.06.65.06,2.04,0,3.68-1.64,3.68-3.68V21.6c0-2.04-1.67-3.71-3.68-3.71-.26,0-.54.03-.76.08Z"/>
    <path class="cls-2" d="M22.77,42.63v14.51c0,1.67,1.36,3.03,3.03,3.03s3.03-1.36,3.03-3.03v-14.51c0-1.67-1.36-3.03-3.03-3.03s-3.03,1.36-3.03,3.03Z"/>
    <path class="cls-12" d="M10.84,38.6v10.83c0,1.5,1.22,2.69,2.69,2.69s2.69-1.22,2.69-2.69v-10.83c0-1.5-1.22-2.69-2.69-2.69s-2.69,1.22-2.69,2.69Z"/>
    <path class="cls-1" d="M62.41,32.39v77.93c0,2.21,1.81,4.02,4.02,4.02s4.02-1.81,4.02-4.02V32.39c0-2.21-1.81-4.02-4.02-4.02s-4.02,1.81-4.02,4.02Z"/>
    <path class="cls-8" d="M35.33,78.93v17.31c0,1.84,1.5,3.37,3.37,3.37s3.37-1.5,3.37-3.37v-17.31c0-1.84-1.5-3.37-3.37-3.37s-3.37,1.5-3.37,3.37Z"/>
    <path class="cls-2" d="M22.77,85.55v14.51c0,1.67,1.36,3.03,3.03,3.03s3.03-1.36,3.03-3.03v-14.51c0-1.67-1.36-3.03-3.03-3.03s-3.03,1.36-3.03,3.03Z"/>
    <path class="cls-12" d="M10.84,93.26v10.83c0,1.5,1.22,2.69,2.69,2.69s2.69-1.22,2.69-2.69v-10.83c0-1.47-1.22-2.69-2.69-2.69s-2.69,1.22-2.69,2.69Z"/>
    <path class="cls-10" d="M120.9,46.46v17.31c0,1.84,1.5,3.37,3.37,3.37s3.37-1.5,3.37-3.37v-17.31c0-1.84-1.5-3.37-3.37-3.37s-3.37,1.5-3.37,3.37Z"/>
    <path class="cls-4" d="M107.05,21.6v99.46c0,2.04,1.64,3.68,3.68,3.68.17,0,.37,0,.65-.06.08,0,.17-.03.31-.08.14-.03.25-.06.34-.11,1.44-.54,2.4-1.92,2.4-3.45V21.57c0-1.5-.88-2.83-2.26-3.39-.23-.08-.42-.17-.65-.2-.26-.06-.51-.08-.76-.08-2.04,0-3.68,1.67-3.68,3.71"/>
    <path class="cls-11" d="M134.12,42.63v14.51c0,1.67,1.36,3.03,3.03,3.03s3.03-1.36,3.03-3.03v-14.51c0-1.67-1.36-3.03-3.03-3.03s-3.03,1.36-3.03,3.03Z"/>
    <path class="cls-9" d="M146.71,38.58v10.83c0,1.5,1.22,2.69,2.69,2.69s2.63-1.16,2.69-2.6v-11.06c-.06-1.44-1.24-2.6-2.69-2.6s-2.69,1.22-2.69,2.69"/>
    <path class="cls-6" d="M92.49,32.39v77.93c0,2.21,1.81,4.02,4.02,4.02s4.02-1.81,4.02-4.02V32.39c0-2.21-1.81-4.02-4.02-4.02s-4.02,1.81-4.02,4.02Z"/>
    <path class="cls-10" d="M120.9,78.93v17.31c0,1.84,1.5,3.37,3.37,3.37s3.37-1.5,3.37-3.37v-17.31c0-1.84-1.5-3.37-3.37-3.37s-3.37,1.5-3.37,3.37Z"/>
    <path class="cls-11" d="M134.12,85.55v14.51c0,1.67,1.36,3.03,3.03,3.03s3.03-1.36,3.03-3.03v-14.51c0-1.67-1.36-3.03-3.03-3.03s-3.03,1.36-3.03,3.03Z"/>
    <path class="cls-9" d="M146.71,93.26v10.83c0,1.5,1.22,2.69,2.69,2.69s2.63-1.16,2.69-2.6v-11.06c-.06-1.44-1.24-2.6-2.69-2.6s-2.69,1.22-2.69,2.69"/>
    <path class="cls-7" d="M77.41,4.02v165.57c0,2.21,1.81,4.02,4.02,4.02s4.02-1.81,4.02-4.02V4.02c0-2.21-1.81-4.02-4.02-4.02s-4.02,1.81-4.02,4.02Z"/>
  </g>
</svg>